<svg version="1.1" id="Layer_1" xmlns:x="ns_extend;" xmlns:i="ns_ai;" xmlns:graph="ns_graphs;" xmlns="http://www.w3.org/2000/svg" xmlns:xlink="http://www.w3.org/1999/xlink" x="0px" y="0px" viewBox="0 0 182.9 64" style="enable-background:new 0 0 182.9 64;" xml:space="preserve">
 <style type="text/css">
  .st0{fill:#9FA0A1;}
 </style>
 <metadata>
  <sfw xmlns="ns_sfw;">
   <slices>
   </slices>
   <sliceSourceBounds bottomLeftOrigin="true" height="64" width="182.9" x="-57.2" y="-20">
   </sliceSourceBounds>
  </sfw>
 </metadata>
 <g>
  <path class="st0" d="M149.9,62.8c-0.3,0-0.5-0.2-0.5-0.5V3.7c0-0.2,0.2-0.4,0.4-0.5l10.2-2.1c0.3-0.1,0.6,0.2,0.6,0.5v60.7
		c0,0.3-0.2,0.5-0.5,0.5H149.9z">
  </path>
  <path class="st0" d="M21.4,64c-4.1,0-7.7-1-10.9-3c-3.2-2-5.8-4.7-7.6-8.1C0.9,49.4,0,45.5,0,41.1c0-4.4,0.9-8.3,2.8-11.6
		c1.9-3.4,4.4-6.1,7.6-8.1c3.2-2,6.9-3,10.9-3c3.3,0,6.1,0.6,8.6,1.8c2,1,3.6,2.3,5,3.9c0.3,0.4,1,0.2,1-0.3V2.6
		c0-0.2,0.2-0.4,0.4-0.5L46.5,0c0.3-0.1,0.6,0.2,0.6,0.5v62c0,0.3-0.2,0.5-0.5,0.5h-9.1c-0.2,0-0.4-0.2-0.5-0.4l-0.9-4.7
		c-0.1-0.4-0.6-0.5-0.9-0.2c-1.3,1.6-2.9,3-4.9,4.2C28,63.3,25,64,21.4,64z M23.7,54.2c3.6,0,6.6-1.2,8.8-3.6
		c2.3-2.5,3.5-5.6,3.5-9.4s-1.2-6.9-3.5-9.3c-2.3-2.5-5.2-3.7-8.8-3.7c-3.6,0-6.5,1.2-8.8,3.6c-2.3,2.4-3.5,5.5-3.5,9.3
		s1.2,6.9,3.5,9.4C17.2,53,20.2,54.2,23.7,54.2z">
  </path>
  <path class="st0" d="M74.4,64c-4.4,0-8.3-0.9-11.6-2.8c-3.4-1.9-6-4.5-8-7.9c-1.9-3.4-2.9-7.3-2.9-11.7c0-4.5,0.9-8.5,2.8-12
		c1.9-3.5,4.6-6.2,7.9-8.1c3.4-2,7.4-3,11.9-3c4.3,0,8,0.9,11.3,2.8c3.3,1.9,5.8,4.4,7.6,7.7c1.9,3.2,2.8,6.8,2.8,10.8
		c0,0.6,0,1.3-0.1,2c0,0.6,0,1.1-0.1,1.7c0,0.3-0.2,0.4-0.5,0.4h-32c-0.3,0-0.5,0.2-0.5,0.5c0.3,3.1,1.5,5.6,3.5,7.4
		c2.2,1.9,4.8,2.9,7.8,2.9c2.3,0,4.2-0.5,5.7-1.5c1.5-1,2.6-2.2,3.4-3.7c0.1-0.2,0.3-0.3,0.4-0.3h10.4c0.3,0,0.6,0.3,0.5,0.6
		c-0.8,2.5-2.1,4.8-3.9,6.9c-1.9,2.2-4.2,4-7,5.3C81.1,63.4,78,64,74.4,64z M74.5,27.6c-2.7,0-5.2,0.8-7.3,2.4
		c-2,1.4-3.3,3.6-3.9,6.4c-0.1,0.3,0.2,0.6,0.5,0.6h20.5c0.3,0,0.5-0.2,0.5-0.5c-0.3-2.6-1.3-4.7-3.1-6.3
		C79.8,28.4,77.4,27.6,74.5,27.6z">
  </path>
  <path class="st0" d="M123.2,64c-4.4,0-8.3-0.9-11.6-2.8c-3.4-1.9-6-4.5-8-7.9c-1.9-3.4-2.9-7.3-2.9-11.7c0-4.5,0.9-8.5,2.8-12
		c1.9-3.5,4.6-6.2,7.9-8.1c3.4-2,7.4-3,11.9-3c4.3,0,8,0.9,11.3,2.8c3.3,1.9,5.8,4.4,7.6,7.7c1.9,3.2,2.8,6.8,2.8,10.8
		c0,0.6,0,1.3-0.1,2c0,0.6,0,1.1-0.1,1.7c0,0.3-0.2,0.4-0.5,0.4h-32c-0.3,0-0.5,0.2-0.5,0.5c0.3,3.1,1.5,5.6,3.5,7.4
		c2.2,1.9,4.8,2.9,7.8,2.9c2.3,0,4.2-0.5,5.7-1.5c1.5-1,2.6-2.2,3.4-3.7c0.1-0.2,0.3-0.3,0.4-0.3h10.4c0.3,0,0.6,0.3,0.5,0.6
		c-0.8,2.5-2.1,4.8-3.9,6.9c-1.9,2.2-4.2,4-7,5.3C129.8,63.4,126.7,64,123.2,64z M123.3,27.6c-2.7,0-5.2,0.8-7.3,2.4
		c-2,1.4-3.3,3.6-3.9,6.4c-0.1,0.3,0.2,0.6,0.5,0.6h20.5c0.3,0,0.5-0.2,0.5-0.5c-0.3-2.6-1.3-4.7-3.1-6.3
		C128.6,28.4,126.2,27.6,123.3,27.6z">
  </path>
  <circle class="st0" cx="175.4" cy="55.2" r="7.5">
  </circle>
 </g>
</svg>